<mxfile host="65bd71144e">
    <diagram id="IeqN9PdBWZHurF_H_65i" name="Page-1">
        <mxGraphModel dx="1595" dy="428" grid="1" gridSize="10" guides="1" tooltips="1" connect="1" arrows="1" fold="1" page="1" pageScale="1" pageWidth="827" pageHeight="1169" math="0" shadow="0">
            <root>
                <mxCell id="0"/>
                <mxCell id="1" parent="0"/>
                <mxCell id="6" value="" style="image;html=1;image=img/lib/clip_art/computers/Laptop_128x128.png" parent="1" vertex="1">
                    <mxGeometry x="-795" y="29" width="70" height="70" as="geometry"/>
                </mxCell>
                <mxCell id="10" value="Cliente&lt;br&gt;" style="text;html=1;strokeColor=none;fillColor=none;align=center;verticalAlign=middle;whiteSpace=wrap;rounded=0;fontFamily=Helvetica;fontSize=12;" parent="1" vertex="1">
                    <mxGeometry x="-785" y="93.6" width="60" height="30" as="geometry"/>
                </mxCell>
                <mxCell id="12" value="" style="sketch=0;aspect=fixed;html=1;points=[];align=center;image;fontSize=12;image=img/lib/mscae/Cache_Redis_Product.svg;fontFamily=Helvetica;" parent="1" vertex="1">
                    <mxGeometry x="-545.63" y="51.6" width="50" height="42" as="geometry"/>
                </mxCell>
                <mxCell id="13" value="" style="dashed=0;outlineConnect=0;html=1;align=center;labelPosition=center;verticalLabelPosition=bottom;verticalAlign=top;shape=mxgraph.weblogos.mongodb;fontFamily=Helvetica;fontSize=12;" parent="1" vertex="1">
                    <mxGeometry x="-418.63" y="12.999999999999996" width="34" height="76.2" as="geometry"/>
                </mxCell>
                <mxCell id="16" value="" style="endArrow=none;html=1;fontFamily=Helvetica;fontSize=12;" parent="1" edge="1">
                    <mxGeometry width="50" height="50" relative="1" as="geometry">
                        <mxPoint x="-760" y="420" as="sourcePoint"/>
                        <mxPoint x="-760" y="120" as="targetPoint"/>
                    </mxGeometry>
                </mxCell>
                <mxCell id="21" value="" style="endArrow=none;html=1;fontFamily=Helvetica;fontSize=12;" parent="1" edge="1">
                    <mxGeometry width="50" height="50" relative="1" as="geometry">
                        <mxPoint x="-641" y="420" as="sourcePoint"/>
                        <mxPoint x="-640.63" y="120" as="targetPoint"/>
                    </mxGeometry>
                </mxCell>
                <mxCell id="22" value="" style="endArrow=none;html=1;fontFamily=Helvetica;fontSize=12;entryX=0.5;entryY=1;entryDx=0;entryDy=0;" parent="1" edge="1">
                    <mxGeometry width="50" height="50" relative="1" as="geometry">
                        <mxPoint x="-401" y="420" as="sourcePoint"/>
                        <mxPoint x="-400.6299999999999" y="119.60000000000002" as="targetPoint"/>
                    </mxGeometry>
                </mxCell>
                <mxCell id="25" value="Backend" style="text;html=1;strokeColor=none;fillColor=none;align=center;verticalAlign=middle;whiteSpace=wrap;rounded=0;fontFamily=Helvetica;fontSize=12;" parent="1" vertex="1">
                    <mxGeometry x="-672" y="93.6" width="60" height="30" as="geometry"/>
                </mxCell>
                <mxCell id="26" value="Mongo" style="text;html=1;strokeColor=none;fillColor=none;align=center;verticalAlign=middle;whiteSpace=wrap;rounded=0;fontFamily=Helvetica;fontSize=12;" parent="1" vertex="1">
                    <mxGeometry x="-431.63" y="93.6" width="60" height="30" as="geometry"/>
                </mxCell>
                <mxCell id="30" value="" style="endArrow=none;html=1;fontFamily=Helvetica;fontSize=12;" parent="1" edge="1">
                    <mxGeometry width="50" height="50" relative="1" as="geometry">
                        <mxPoint x="-521" y="420" as="sourcePoint"/>
                        <mxPoint x="-520.97" y="120.2" as="targetPoint"/>
                    </mxGeometry>
                </mxCell>
                <mxCell id="32" value="Redis" style="text;html=1;strokeColor=none;fillColor=none;align=center;verticalAlign=middle;whiteSpace=wrap;rounded=0;fontFamily=Helvetica;fontSize=12;" parent="1" vertex="1">
                    <mxGeometry x="-550.63" y="93.6" width="60" height="30" as="geometry"/>
                </mxCell>
                <mxCell id="64" value="" style="shape=image;verticalLabelPosition=bottom;verticalAlign=top;imageAspect=0;aspect=fixed;image=data:image/svg+xml,PHN2ZyB4bWxucz0iaHR0cDovL3d3dy53My5vcmcvMjAwMC9zdmciIHhtbG5zOnhsaW5rPSJodHRwOi8vd3d3LnczLm9yZy8xOTk5L3hsaW5rIiB3aWR0aD0iMjU2IiBoZWlnaHQ9IjI1NS45OTg5OTI5MTk5MjE4OCIgdmlld0JveD0iMCAwIDI1NiAyNTUuOTk4OTkyOTE5OTIxODgiIHZlcnNpb249IjEuMSIgcHJlc2VydmVBc3BlY3RSYXRpbz0ieE1pZFlNaWQiPgogICAgPGc+CiAgICAgICAgPHBhdGggZD0iTTE2MC4yMjcsMTc4LjUxODYgTDE4Ny44NTcsMTc4LjUxODYgTDE0My43NSw2NC4wNDg2IEwxMTMuMjAxLDY0LjA0ODYgTDY5LjA5NCwxNzguNTE4NiBMOTYuNzI2LDE3OC41MTg2IEwxMDMuOTM0LDE1OS4xMjg2IEwxNDUuNjA5LDE1OS4xMjg2IEwxMzguMDY1LDEzNy42NzI2IEwxMTAuNjI1LDEzNy42NzI2IEwxMjguNDc1LDg4LjQxODYgTDE2MC4yMjcsMTc4LjUxODYgWiBNMjUxLjMzOSw5My43NjggQzI1MC4zNTcsOTAuMjMyIDI0Ni43MDUsODguMTU1IDI0My4xNTQsODkuMTQxIEMyMzkuNjE3LDkwLjEyMyAyMzcuNTQ0LDkzLjc4NyAyMzguNTI2LDk3LjMyNCBDMjQxLjI5OSwxMDcuMzA5IDI0Mi43MDQsMTE3LjYzIDI0Mi43MDQsMTI4IEMyNDIuNzA0LDE5MS4yNDggMTkxLjI0OCwyNDIuNzAyIDEyOCwyNDIuNzAyIEM2NC43NTIsMjQyLjcwMiAxMy4yOTcsMTkxLjI0OCAxMy4yOTcsMTI4IEMxMy4yOTcsNjQuNzUxIDY0Ljc1MiwxMy4yOTYgMTI4LDEzLjI5NiBDMTU0Ljc5MywxMy4yOTYgMTgwLjcxOCwyMi44MTQgMjAxLjE3OSwzOS43NTIgQzIwMC4zODMsNDEuNjUyIDE5OS45NDEsNDMuNzM3IDE5OS45NDEsNDUuOTI1IEMxOTkuOTQxLDU0Ljc2IDIwNy4xMDMsNjEuOTIyIDIxNS45MzgsNjEuOTIyIEMyMjQuNzczLDYxLjkyMiAyMzEuOTM1LDU0Ljc2IDIzMS45MzUsNDUuOTI1IEMyMzEuOTM1LDM3LjA5IDIyNC43NzMsMjkuOTI4IDIxNS45MzgsMjkuOTI4IEMyMTQuMjM3LDI5LjkyOCAyMTIuNiwzMC4xOTkgMjExLjA2MiwzMC42OTEgQzE4OC4wMjIsMTEuMDU2IDE1OC41MTMsMCAxMjgsMCBDNTcuNDIxLDAgMCw1Ny40MiAwLDEyOCBDMCwxOTguNTc5IDU3LjQyMSwyNTUuOTk5IDEyOCwyNTUuOTk5IEMxOTguNTc5LDI1NS45OTkgMjU2LDE5OC41NzkgMjU2LDEyOCBDMjU2LDExNi40MjggMjU0LjQzMywxMDQuOTEgMjUxLjMzOSw5My43NjggWiIgZmlsbD0iIzExMkI0OSIvPgogICAgPC9nPgo8L3N2Zz4=" parent="1" vertex="1">
                    <mxGeometry x="-672" y="34.4" width="59.2" height="59.2" as="geometry"/>
                </mxCell>
                <mxCell id="125" value="register" style="endArrow=classic;html=1;fontFamily=Helvetica;fontSize=12;" edge="1" parent="1">
                    <mxGeometry x="-0.0069" y="5" width="50" height="50" relative="1" as="geometry">
                        <mxPoint x="-760.0000000000001" y="131.00000000000003" as="sourcePoint"/>
                        <mxPoint x="-640" y="141" as="targetPoint"/>
                        <mxPoint as="offset"/>
                    </mxGeometry>
                </mxCell>
                <mxCell id="127" value="findOne(usuario)" style="endArrow=classic;html=1;fontFamily=Helvetica;fontSize=12;" edge="1" parent="1">
                    <mxGeometry x="0.4966" y="5" width="50" height="50" relative="1" as="geometry">
                        <mxPoint x="-640.0000000000001" y="150" as="sourcePoint"/>
                        <mxPoint x="-400" y="170" as="targetPoint"/>
                        <mxPoint as="offset"/>
                    </mxGeometry>
                </mxCell>
                <mxCell id="128" value="resultados" style="endArrow=classic;html=1;fontFamily=Helvetica;fontSize=12;" edge="1" parent="1">
                    <mxGeometry x="0.4988" y="3" width="50" height="50" relative="1" as="geometry">
                        <mxPoint x="-401" y="180" as="sourcePoint"/>
                        <mxPoint x="-640" y="190" as="targetPoint"/>
                        <mxPoint as="offset"/>
                    </mxGeometry>
                </mxCell>
                <mxCell id="129" value="insertOne(usuario)" style="endArrow=classic;html=1;fontFamily=Helvetica;fontSize=12;" edge="1" parent="1">
                    <mxGeometry x="0.4966" y="5" width="50" height="50" relative="1" as="geometry">
                        <mxPoint x="-640.6300000000001" y="200" as="sourcePoint"/>
                        <mxPoint x="-400.63" y="220" as="targetPoint"/>
                        <mxPoint as="offset"/>
                    </mxGeometry>
                </mxCell>
                <mxCell id="130" value="resultado" style="endArrow=classic;html=1;fontFamily=Helvetica;fontSize=12;" edge="1" parent="1">
                    <mxGeometry x="0.4936" y="-5" width="50" height="50" relative="1" as="geometry">
                        <mxPoint x="-401.2" y="330" as="sourcePoint"/>
                        <mxPoint x="-640.07" y="350" as="targetPoint"/>
                        <mxPoint as="offset"/>
                    </mxGeometry>
                </mxCell>
                <mxCell id="131" value="resultado" style="endArrow=classic;html=1;fontFamily=Helvetica;fontSize=12;" edge="1" parent="1">
                    <mxGeometry x="-0.0069" y="-5" width="50" height="50" relative="1" as="geometry">
                        <mxPoint x="-640.0000000000001" y="260" as="sourcePoint"/>
                        <mxPoint x="-760" y="270" as="targetPoint"/>
                        <mxPoint as="offset"/>
                    </mxGeometry>
                </mxCell>
                <mxCell id="132" value="login" style="endArrow=classic;html=1;fontFamily=Helvetica;fontSize=12;" edge="1" parent="1">
                    <mxGeometry x="-0.0069" y="5" width="50" height="50" relative="1" as="geometry">
                        <mxPoint x="-760" y="280" as="sourcePoint"/>
                        <mxPoint x="-640" y="290" as="targetPoint"/>
                        <mxPoint as="offset"/>
                    </mxGeometry>
                </mxCell>
                <mxCell id="133" value="findOne(usuario)" style="endArrow=classic;html=1;fontFamily=Helvetica;fontSize=12;" edge="1" parent="1">
                    <mxGeometry x="0.4966" y="5" width="50" height="50" relative="1" as="geometry">
                        <mxPoint x="-640.63" y="300" as="sourcePoint"/>
                        <mxPoint x="-400.63" y="320" as="targetPoint"/>
                        <mxPoint as="offset"/>
                    </mxGeometry>
                </mxCell>
                <mxCell id="135" value="token, usuario" style="endArrow=classic;html=1;fontFamily=Helvetica;fontSize=12;" edge="1" parent="1">
                    <mxGeometry x="-0.0069" y="5" width="50" height="50" relative="1" as="geometry">
                        <mxPoint x="-640" y="360" as="sourcePoint"/>
                        <mxPoint x="-520" y="370" as="targetPoint"/>
                        <mxPoint as="offset"/>
                    </mxGeometry>
                </mxCell>
                <mxCell id="140" value="token" style="endArrow=classic;html=1;fontFamily=Helvetica;fontSize=12;" edge="1" parent="1">
                    <mxGeometry x="-0.0069" y="-5" width="50" height="50" relative="1" as="geometry">
                        <mxPoint x="-640.0000000000001" y="400" as="sourcePoint"/>
                        <mxPoint x="-760" y="410" as="targetPoint"/>
                        <mxPoint as="offset"/>
                    </mxGeometry>
                </mxCell>
                <mxCell id="141" value="" style="html=1;labelBackgroundColor=#ffffff;startArrow=none;startFill=0;startSize=6;endArrow=classic;endFill=1;endSize=6;jettySize=auto;orthogonalLoop=1;strokeWidth=1;dashed=1;fontSize=14;" edge="1" parent="1">
                    <mxGeometry width="60" height="60" relative="1" as="geometry">
                        <mxPoint x="-520" y="380" as="sourcePoint"/>
                        <mxPoint x="-640" y="390" as="targetPoint"/>
                    </mxGeometry>
                </mxCell>
                <mxCell id="142" value="await" style="text;html=1;strokeColor=none;fillColor=none;align=center;verticalAlign=middle;whiteSpace=wrap;rounded=0;fontFamily=Helvetica;fontSize=12;" vertex="1" parent="1">
                    <mxGeometry x="-690" y="360" width="60" height="30" as="geometry"/>
                </mxCell>
            </root>
        </mxGraphModel>
    </diagram>
</mxfile>